<svg xmlns="http://www.w3.org/2000/svg" width="128" height="128" viewBox="0 0 24 24"><g fill-rule="evenodd"><path d="M11.614 3.357a.75.75 0 0 1 .772 0l10 6a.75.75 0 0 1 0 1.286l-10 6a.75.75 0 0 1-.772 0l-10-6a.75.75 0 0 1 0-1.286l10-6ZM3.458 10 12 15.125 20.542 10 12 4.875 3.458 10Z"/><path d="M21.5 9.25a.75.75 0 0 1 .75.75v4.5a.75.75 0 0 1-1.5 0V10a.75.75 0 0 1 .75-.75ZM6 11.75a.75.75 0 0 1 .75.75v4A2.25 2.25 0 0 0 9 18.75h6a2.25 2.25 0 0 0 2.25-2.25v-4a.75.75 0 0 1 1.5 0v4A3.75 3.75 0 0 1 15 20.25H9a3.75 3.75 0 0 1-3.75-3.75v-4a.75.75 0 0 1 .75-.75Z"/></g></svg>